PathFileType	4	(X/Y/Z)	./resultDataOpenSim/trcMotMarkerGrf/sub10/qtm-14-08.trc
DataRate	CameraRate	NumFrames	NumMarkers	Units	OrigDataRate	OrigDataStartFrame	OrigNumFrames
250.000000	250.000000	8	24	m	250.000000	1	507
Frame#	Time	L.Toe.Tip			R.Toe.Tip			L.Ankle.Lat			R.Ankle.Lat			L.Ankle.Med			R.Ankle.Med			L.Heel			R.Heel			L.Knee.Lat			R.Knee.Lat			L.Knee.Med			R.Knee.Med			L.Thigh.Upper			R.Thigh.Upper			L.ASIS			R.ASIS			V.Sacral			L.Acromium			R.Acromium			C7			L.Elbow			R.Elbow			L.Wrist.Lat			R.Wrist.Lat
		X1	Y1	Z1	X2	Y2	Z2	X3	Y3	Z3	X4	Y4	Z4	X5	Y5	Z5	X6	Y6	Z6	X7	Y7	Z7	X8	Y8	Z8	X9	Y9	Z9	X10	Y10	Z10	X11	Y11	Z11	X12	Y12	Z12	X13	Y13	Z13	X14	Y14	Z14	X15	Y15	Z15	X16	Y16	Z16	X17	Y17	Z17	X18	Y18	Z18	X19	Y19	Z19	X20	Y20	Z20	X21	Y21	Z21	X22	Y22	Z22	X23	Y23	Z23	X24	Y24	Z24

1	0	-1.4907459	0.039255249	-0.043293108	-0.88109913	0.10763427	0.0465045	-1.6261032	0.071368157	-0.055411838	-1.0196118	0.070242893	0.074923299	-1.6042327	0.094361759	0.025316804	-1.0067319	0.11102698	-0.0022373061	NaN	NaN	NaN	-1.0517896	0.034167792	0.020405565	-1.474336	0.42772708	-0.11257542	-1.1371261	0.45246652	0.12457303	-1.4608861	0.40778147	0.0076132644	-1.124926	0.46409687	-0.0055271127	-1.3933968	0.81134991	-0.19002263	-1.2910494	0.83565811	0.18004078	-1.3117727	0.91730071	-0.14378026	-1.2396565	0.9259402	0.091395901	-1.4626833	0.94443296	0.041803949	-1.3026236	1.3833218	-0.16937038	-1.301436	1.3884688	0.15485661	-1.3805554	1.4265649	-0.011164588	-1.3750708	1.0338182	-0.208839	-1.4657638	1.0840581	0.21922885	-1.1476661	0.92437937	-0.20361957	-1.3802907	0.86656622	0.28993401
2	0.004	-1.4907664	0.039230243	-0.043318209	-0.86992296	0.11006066	0.045503298	-1.6259868	0.07180495	-0.055388589	-1.0079901	0.07100245	0.074995514	-1.6038987	0.094705591	0.025344316	-0.99622023	0.11198176	-0.0023456023	NaN	NaN	NaN	-1.0400745	0.034493627	0.02066085	-1.4725358	0.42741817	-0.1127487	-1.1318532	0.45132488	0.12496972	-1.4571089	0.40728267	0.0070161182	-1.1197776	0.46289411	-0.0052024099	-1.3899275	0.81072111	-0.19017953	-1.2857426	0.83409789	0.17996024	-1.3081221	0.91642946	-0.14393848	-1.2348996	0.92483285	0.091013277	-1.4585164	0.94256669	0.042801291	-1.298099	1.3820024	-0.16936857	-1.2968608	1.3871422	0.15489615	-1.376084	1.4254106	-0.010972888	-1.3698525	1.0322386	-0.20874958	-1.4619455	1.0832003	0.21912655	-1.1415876	0.92470035	-0.20284333	-1.3774953	0.86558754	0.29030922
3	0.008	-1.490785	0.039206797	-0.043340565	-0.85903262	0.11242734	0.044515542	-1.6258391	0.072247663	-0.055366264	-0.99658356	0.071771942	0.075071161	-1.6035484	0.095073785	0.025380953	-0.98583909	0.11292552	-0.0024683138	NaN	NaN	NaN	-1.0285811	0.03484791	0.020979091	-1.4706882	0.42711813	-0.1129126	-1.1265725	0.45018154	0.12536212	-1.453916	0.40680517	0.0065690312	-1.1146918	0.46167358	-0.0048799205	-1.3864598	0.81008578	-0.19030581	-1.2804685	0.83253537	0.17987844	-1.3044293	0.91555928	-0.14408525	-1.2300795	0.92372606	0.090678122	-1.4549296	0.94031762	0.043138477	-1.293564	1.3806758	-0.16938849	-1.2923053	1.3857871	0.15491004	-1.3716165	1.4242465	-0.01084783	-1.3646097	1.0306564	-0.20863306	-1.4581235	1.082206	0.21888541	-1.1355123	0.92499827	-0.20207044	-1.3748478	0.86450679	0.29067912
4	0.012	-1.4907998	0.039184576	-0.043362404	-0.84853392	0.11464416	0.043606579	-1.6256417	0.072703021	-0.055345072	-0.98549632	0.072557404	0.075172471	-1.6031669	0.095480224	0.025415945	-0.97567447	0.1138249	-0.0025903975	NaN	NaN	NaN	-1.0174425	0.035250623	0.021377851	-1.468758	0.42682913	-0.11306421	-1.1212307	0.44906466	0.12574971	-1.4513546	0.40636458	0.0062918443	-1.1096885	0.46042636	-0.0045639165	-1.3829786	0.80945953	-0.19040139	-1.2752423	0.83096636	0.17980396	-1.3006621	0.91468663	-0.14421768	-1.2251884	0.92260896	0.090405289	-1.4520091	0.93779345	0.04237984	-1.2890156	1.3793455	-0.16943187	-1.2877596	1.3844066	0.15491371	-1.3671365	1.4230822	-0.010766101	-1.359327	1.0290782	-0.20847432	-1.4543183	1.080909	0.21833622	-1.1294423	0.92526291	-0.20129722	-1.3723831	0.86327922	0.29104493
5	0.016	-1.4908092	0.039162494	-0.043387843	-0.83840531	0.11664503	0.042770483	-1.6253992	0.07318456	-0.055326086	-0.97477683	0.073350965	0.075319047	-1.6027588	0.095925759	0.025434177	-0.9657913	0.11464592	-0.0026717364	NaN	NaN	NaN	-1.0067114	0.035691644	0.021863532	-1.4667335	0.42654677	-0.11321035	-1.1157206	0.44802637	0.12613582	-1.4490808	0.40596056	0.0061020794	-1.1047664	0.45915757	-0.0042581071	-1.3794703	0.8088576	-0.19046718	-1.2700182	0.82940905	0.1797712	-1.2968184	0.91381119	-0.14434362	-1.2202655	0.92147317	0.090184643	-1.4492223	0.93546277	0.040896505	-1.2844551	1.378027	-0.16948213	-1.2831742	1.3830318	0.15494256	-1.3626391	1.421936	-0.010688707	-1.3540104	1.0275189	-0.20827266	-1.450554	1.0792025	0.21737422	-1.1233923	0.92549697	-0.20052357	-1.3699758	0.86193839	0.29139563
6	0.02	-1.4908137	0.039141327	-0.04341726	-0.82859577	0.11842615	0.041901132	-1.6251283	0.073719133	-0.055314241	-0.96443364	0.074145794	0.075513876	-1.6023518	0.0964061	0.02543476	-0.95623503	0.11538117	-0.0026856967	NaN	NaN	NaN	-0.9963475	0.036121953	0.022507233	-1.4646197	0.42626532	-0.11336411	-1.1098879	0.44712685	0.12651944	-1.4467597	0.40557919	0.0059147448	-1.0999095	0.45787743	-0.0039644239	-1.3759314	0.80828105	-0.19049819	-1.2647414	0.82789468	0.17980829	-1.2929143	0.91293918	-0.1444719	-1.2153272	0.92031919	0.090003494	-1.4459047	0.93358494	0.039762908	-1.2798679	1.3767345	-0.16951994	-1.2785089	1.3816833	0.15500862	-1.3581286	1.4208143	-0.010616764	-1.3486693	1.0259882	-0.20803943	-1.4467762	1.0772376	0.21616667	-1.1173692	0.92570887	-0.19976123	-1.3674166	0.86056424	0.29170643
7	0.024	-1.4908148	0.039122882	-0.04344823	-0.81908348	0.12000629	0.040946474	-1.6248385	0.07432718	-0.055316326	-0.95438733	0.074971045	0.075760095	-1.601965	0.096920897	0.025424325	-0.94704051	0.11603081	-0.0026369941	NaN	NaN	NaN	-0.98628514	0.036496365	0.023382413	-1.4624288	0.42598354	-0.11353156	-1.1036785	0.44639647	0.12688624	-1.4442981	0.40520715	0.0057065492	-1.0950818	0.45659856	-0.0036799261	-1.3723663	0.80772811	-0.19050469	-1.2594354	0.82644016	0.1799005	-1.2889681	0.91207766	-0.14460585	-1.210348	0.91915252	0.08985322	-1.4418312	0.93203311	0.03965648	-1.2752388	1.3754732	-0.16953197	-1.2737976	1.3803538	0.15509095	-1.3536004	1.4197156	-0.010549584	-1.3433226	1.0244878	-0.20783639	-1.4428816	1.0753728	0.21504626	-1.1113686	0.92590637	-0.19902188	-1.3646143	0.85922377	0.29196445
8	0.028	-1.490812	0.039107249	-0.043479372	-0.80988372	0.12139948	0.039957404	-1.6245286	0.074995975	-0.05533287	-0.94443168	0.075909243	0.076086009	-1.6015904	0.097472531	0.025405156	-0.93822956	0.11658401	-0.0025427003	NaN	NaN	NaN	-0.9765652	0.036824706	0.024404105	-1.4601695	0.42570561	-0.11370685	-1.0972862	0.44579313	0.12722215	-1.4418979	0.40483089	0.0055253177	-1.0902382	0.45533878	-0.0033953156	-1.3687761	0.80719366	-0.19049688	-1.2541274	0.8250498	0.18002061	-1.2849925	0.91122344	-0.14475124	-1.2052958	0.91798014	0.089725448	-1.4371847	0.93056938	0.040334471	-1.2705619	1.37424	-0.16950929	-1.2690985	1.3790312	0.15516767	-1.349048	1.418637	-0.010479257	-1.338012	1.0230164	-0.20782202	-1.4388527	1.0738263	0.21408392	-1.1053858	0.92609349	-0.19830326	-1.361661	0.85793792	0.29217703
